<svg width="36" height="35" viewBox="0 0 36 35" fill="none" xmlns="http://www.w3.org/2000/svg">
<g clip-path="url(#clip0_27_68)">
<path d="M13.5 30.3271C14.8807 30.3271 16 29.2866 16 28.003C16 26.7194 14.8807 25.6788 13.5 25.6788C12.1193 25.6788 11 26.7194 11 28.003C11 29.2866 12.1193 30.3271 13.5 30.3271Z" fill="#50C878"/>
<path d="M26.5 30.3271C27.8807 30.3271 29 29.2866 29 28.003C29 26.7194 27.8807 25.6788 26.5 25.6788C25.1193 25.6788 24 26.7194 24 28.003C24 29.2866 25.1193 30.3271 26.5 30.3271Z" fill="#50C878"/>
<path d="M35.3993 7.80545C35.3061 7.69295 35.1865 7.60178 35.0496 7.53893C34.9126 7.47608 34.762 7.44323 34.6093 7.44289H11.5093L11.0593 6.11347C11.0099 5.97073 10.924 5.84122 10.8091 5.736C10.6942 5.63078 10.5536 5.55296 10.3993 5.50919L6.2993 4.33782C6.17324 4.3018 6.04077 4.28923 5.90947 4.3008C5.77818 4.31238 5.65062 4.34789 5.53408 4.40529C5.29872 4.52123 5.12254 4.71934 5.0443 4.95604C4.96607 5.19274 4.99217 5.44864 5.11689 5.66744C5.2416 5.88625 5.4547 6.05003 5.7093 6.12277L9.2993 7.1454L13.8793 20.5976L12.2493 21.8433L12.1193 21.9642C11.7162 22.3981 11.4878 22.9488 11.4732 23.522C11.4586 24.0952 11.6587 24.6553 12.0393 25.1065C12.3119 25.4146 12.6582 25.6592 13.0506 25.8206C13.4431 25.982 13.8707 26.0558 14.2993 26.0361H30.9893C31.2545 26.0361 31.5089 25.9382 31.6964 25.7638C31.8839 25.5895 31.9893 25.353 31.9893 25.1065C31.9893 24.8599 31.8839 24.6234 31.6964 24.4491C31.5089 24.2747 31.2545 24.1768 30.9893 24.1768H14.1393C14.0242 24.1731 13.912 24.1419 13.8136 24.0862C13.7152 24.0305 13.6339 23.9521 13.5776 23.8586C13.5213 23.7652 13.4919 23.6598 13.4922 23.5527C13.4925 23.4456 13.5225 23.3403 13.5793 23.2471L15.9893 21.3878H31.4193C31.6477 21.394 31.8716 21.3273 32.0535 21.1987C32.2355 21.0701 32.3646 20.8875 32.4193 20.6813L35.6193 8.59567C35.6497 8.45707 35.6457 8.31385 35.6076 8.17691C35.5695 8.03998 35.4982 7.91293 35.3993 7.80545Z" fill="#50C878"/>
</g>
<defs>
<clipPath id="clip0_27_68">
<rect width="36" height="33.4678" fill="white" transform="translate(0 0.577972)"/>
</clipPath>
</defs>
</svg>
